<svg preserveAspectRatio="none" width="100%" height="100%" overflow="visible" style="display: block;" viewBox="0 0 14 18" fill="none" xmlns="http://www.w3.org/2000/svg">
<g id="Vector">
<g filter="url(#filter0_i_0_15)">
<path d="M3.46251 0.827793L3.49363 0.849115L12.6115 7.09831C12.8751 7.27867 13.1197 7.44658 13.3072 7.60205C13.5034 7.76464 13.7351 7.9903 13.8682 8.3199C13.9552 8.53564 14 8.76689 14 9.00044C14 9.23398 13.9552 9.46524 13.8682 9.68097C13.7351 10.0106 13.5034 10.2362 13.3072 10.3988C13.1197 10.5543 12.8751 10.7222 12.6115 10.9026L3.46251 17.1713C3.14011 17.3916 2.85056 17.5906 2.60423 17.7275C2.35789 17.8652 2.01994 18.0215 1.62581 17.9975C1.37645 17.9823 1.13328 17.9116 0.913048 17.7904C0.692811 17.6693 0.500738 17.5005 0.350054 17.2957C0.111499 16.9714 0.0509956 16.5956 0.0250656 16.3095C4.34684e-08 16.0217 0 15.6645 0 15.2647V2.77167V2.73347C0 2.33545 -2.41491e-08 1.97742 0.0259299 1.69046C0.0509955 1.40438 0.112363 1.02769 0.350054 0.704301C0.500738 0.499515 0.692811 0.330729 0.913048 0.209565C1.13328 0.0884017 1.37645 0.0177391 1.62581 0.00244334C2.01994 -0.0215442 2.35789 0.135708 2.60423 0.271637C2.85056 0.409343 3.14011 0.606574 3.46251 0.827793Z" fill="var(--fill-0, white)"/>
<path d="M3.46251 0.827793L3.49363 0.849115L12.6115 7.09831C12.8751 7.27867 13.1197 7.44658 13.3072 7.60205C13.5034 7.76464 13.7351 7.9903 13.8682 8.3199C13.9552 8.53564 14 8.76689 14 9.00044C14 9.23398 13.9552 9.46524 13.8682 9.68097C13.7351 10.0106 13.5034 10.2362 13.3072 10.3988C13.1197 10.5543 12.8751 10.7222 12.6115 10.9026L3.46251 17.1713C3.14011 17.3916 2.85056 17.5906 2.60423 17.7275C2.35789 17.8652 2.01994 18.0215 1.62581 17.9975C1.37645 17.9823 1.13328 17.9116 0.913048 17.7904C0.692811 17.6693 0.500738 17.5005 0.350054 17.2957C0.111499 16.9714 0.0509956 16.5956 0.0250656 16.3095C4.34684e-08 16.0217 0 15.6645 0 15.2647V2.77167V2.73347C0 2.33545 -2.41491e-08 1.97742 0.0259299 1.69046C0.0509955 1.40438 0.112363 1.02769 0.350054 0.704301C0.500738 0.499515 0.692811 0.330729 0.913048 0.209565C1.13328 0.0884017 1.37645 0.0177391 1.62581 0.00244334C2.01994 -0.0215442 2.35789 0.135708 2.60423 0.271637C2.85056 0.409343 3.14011 0.606574 3.46251 0.827793Z" fill="var(--fill-1, black)"/>
</g>
<path d="M1.6377 0.202148C1.97208 0.181797 2.26817 0.313716 2.50684 0.445312V0.446289C2.74353 0.578626 3.02524 0.770593 3.34961 0.993164L3.38086 1.01367L12.498 7.26367C12.7639 7.44553 13.0007 7.60748 13.1797 7.75586C13.3664 7.91062 13.5679 8.1107 13.6826 8.39453C13.76 8.58626 13.7997 8.79214 13.7998 9C13.7998 9.20801 13.76 9.41458 13.6826 9.60645C13.5679 9.89023 13.3664 10.0904 13.1797 10.2451C13.0007 10.3935 12.7638 10.5555 12.498 10.7373L3.34961 17.0059C3.1053 17.1728 2.88635 17.3233 2.69238 17.4434L2.50684 17.5527C2.26916 17.6856 1.97273 17.8182 1.6377 17.7979C1.41826 17.7843 1.20409 17.7221 1.00977 17.6152C0.815248 17.5082 0.644436 17.3585 0.510742 17.1768C0.357297 16.968 0.287146 16.7304 0.250977 16.5078L0.224609 16.291C0.200562 16.0139 0.200195 15.6669 0.200195 15.2646V2.7334C0.200195 2.43257 0.20037 2.16175 0.210938 1.92871L0.225586 1.70801C0.249803 1.43161 0.305814 1.09998 0.509766 0.822266L0.510742 0.823242C0.644436 0.641547 0.815248 0.49178 1.00977 0.384766C1.20409 0.277907 1.41826 0.215662 1.6377 0.202148Z" stroke="var(--stroke-0, #9B9B9B)" stroke-width="0.4"/>
</g>
<defs>
<filter id="filter0_i_0_15" x="0" y="0" width="14" height="18" filterUnits="userSpaceOnUse" color-interpolation-filters="sRGB">
<feFlood flood-opacity="0" result="BackgroundImageFix"/>
<feBlend mode="normal" in="SourceGraphic" in2="BackgroundImageFix" result="shape"/>
<feColorMatrix in="SourceAlpha" type="matrix" values="0 0 0 0 0 0 0 0 0 0 0 0 0 0 0 0 0 0 127 0" result="hardAlpha"/>
<feOffset/>
<feGaussianBlur stdDeviation="1"/>
<feComposite in2="hardAlpha" operator="arithmetic" k2="-1" k3="1"/>
<feColorMatrix type="matrix" values="0 0 0 0 1 0 0 0 0 1 0 0 0 0 1 0 0 0 1 0"/>
<feBlend mode="normal" in2="shape" result="effect1_innerShadow_0_15"/>
</filter>
</defs>
</svg>
