<svg preserveAspectRatio="none" width="100%" height="100%" overflow="visible" style="display: block;" viewBox="0 0 226 64" fill="none" xmlns="http://www.w3.org/2000/svg">
<g id="Album Art Overlay">
<g id="Union">
<mask id="path-1-inside-1_0_11" fill="white">
<path d="M5 54C7.76142 54 10 56.2386 10 59C10 61.7614 7.76142 64 5 64C2.23858 64 0 61.7614 0 59C0 56.2386 2.23858 54 5 54Z"/>
<path d="M23 54C25.7614 54 28 56.2386 28 59C28 61.7614 25.7614 64 23 64C20.2386 64 18 61.7614 18 59C18 56.2386 20.2386 54 23 54Z"/>
<path d="M41 54C43.7614 54 46 56.2386 46 59C46 61.7614 43.7614 64 41 64C38.2386 64 36 61.7614 36 59C36 56.2386 38.2386 54 41 54Z"/>
<path d="M59 54C61.7614 54 64 56.2386 64 59C64 61.7614 61.7614 64 59 64C56.2386 64 54 61.7614 54 59C54 56.2386 56.2386 54 59 54Z"/>
<path d="M77 54C79.7614 54 82 56.2386 82 59C82 61.7614 79.7614 64 77 64C74.2386 64 72 61.7614 72 59C72 56.2386 74.2386 54 77 54Z"/>
<path d="M95 54C97.7614 54 100 56.2386 100 59C100 61.7614 97.7614 64 95 64C92.2386 64 90 61.7614 90 59C90 56.2386 92.2386 54 95 54Z"/>
<path d="M113 54C115.761 54 118 56.2386 118 59C118 61.7614 115.761 64 113 64C110.239 64 108 61.7614 108 59C108 56.2386 110.239 54 113 54Z"/>
<path d="M131 54C133.761 54 136 56.2386 136 59C136 61.7614 133.761 64 131 64C128.239 64 126 61.7614 126 59C126 56.2386 128.239 54 131 54Z"/>
<path d="M149 54C151.761 54 154 56.2386 154 59C154 61.7614 151.761 64 149 64C146.239 64 144 61.7614 144 59C144 56.2386 146.239 54 149 54Z"/>
<path d="M167 54C169.761 54 172 56.2386 172 59C172 61.7614 169.761 64 167 64C164.239 64 162 61.7614 162 59C162 56.2386 164.239 54 167 54Z"/>
<path d="M185 54C187.761 54 190 56.2386 190 59C190 61.7614 187.761 64 185 64C182.239 64 180 61.7614 180 59C180 56.2386 182.239 54 185 54Z"/>
<path d="M203 54C205.761 54 208 56.2386 208 59C208 61.7614 205.761 64 203 64C200.239 64 198 61.7614 198 59C198 56.2386 200.239 54 203 54Z"/>
<path d="M221 54C223.761 54 226 56.2386 226 59C226 61.7614 223.761 64 221 64C218.239 64 216 61.7614 216 59C216 56.2386 218.239 54 221 54Z"/>
<path d="M5 36C7.76142 36 10 38.2386 10 41C10 43.7614 7.76142 46 5 46C2.23858 46 0 43.7614 0 41C0 38.2386 2.23858 36 5 36Z"/>
<path d="M23 36C25.7614 36 28 38.2386 28 41C28 43.7614 25.7614 46 23 46C20.2386 46 18 43.7614 18 41C18 38.2386 20.2386 36 23 36Z"/>
<path d="M41 36C43.7614 36 46 38.2386 46 41C46 43.7614 43.7614 46 41 46C38.2386 46 36 43.7614 36 41C36 38.2386 38.2386 36 41 36Z"/>
<path d="M59 36C61.7614 36 64 38.2386 64 41C64 43.7614 61.7614 46 59 46C56.2386 46 54 43.7614 54 41C54 38.2386 56.2386 36 59 36Z"/>
<path d="M77 36C79.7614 36 82 38.2386 82 41C82 43.7614 79.7614 46 77 46C74.2386 46 72 43.7614 72 41C72 38.2386 74.2386 36 77 36Z"/>
<path d="M95 36C97.7614 36 100 38.2386 100 41C100 43.7614 97.7614 46 95 46C92.2386 46 90 43.7614 90 41C90 38.2386 92.2386 36 95 36Z"/>
<path d="M113 36C115.761 36 118 38.2386 118 41C118 43.7614 115.761 46 113 46C110.239 46 108 43.7614 108 41C108 38.2386 110.239 36 113 36Z"/>
<path d="M131 36C133.761 36 136 38.2386 136 41C136 43.7614 133.761 46 131 46C128.239 46 126 43.7614 126 41C126 38.2386 128.239 36 131 36Z"/>
<path d="M149 36C151.761 36 154 38.2386 154 41C154 43.7614 151.761 46 149 46C146.239 46 144 43.7614 144 41C144 38.2386 146.239 36 149 36Z"/>
<path d="M167 36C169.761 36 172 38.2386 172 41C172 43.7614 169.761 46 167 46C164.239 46 162 43.7614 162 41C162 38.2386 164.239 36 167 36Z"/>
<path d="M185 36C187.761 36 190 38.2386 190 41C190 43.7614 187.761 46 185 46C182.239 46 180 43.7614 180 41C180 38.2386 182.239 36 185 36Z"/>
<path d="M203 36C205.761 36 208 38.2386 208 41C208 43.7614 205.761 46 203 46C200.239 46 198 43.7614 198 41C198 38.2386 200.239 36 203 36Z"/>
<path d="M221 36C223.761 36 226 38.2386 226 41C226 43.7614 223.761 46 221 46C218.239 46 216 43.7614 216 41C216 38.2386 218.239 36 221 36Z"/>
<path d="M5 18C7.76142 18 10 20.2386 10 23C10 25.7614 7.76142 28 5 28C2.23858 28 0 25.7614 0 23C0 20.2386 2.23858 18 5 18Z"/>
<path d="M23 18C25.7614 18 28 20.2386 28 23C28 25.7614 25.7614 28 23 28C20.2386 28 18 25.7614 18 23C18 20.2386 20.2386 18 23 18Z"/>
<path d="M41 18C43.7614 18 46 20.2386 46 23C46 25.7614 43.7614 28 41 28C38.2386 28 36 25.7614 36 23C36 20.2386 38.2386 18 41 18Z"/>
<path d="M59 18C61.7614 18 64 20.2386 64 23C64 25.7614 61.7614 28 59 28C56.2386 28 54 25.7614 54 23C54 20.2386 56.2386 18 59 18Z"/>
<path d="M77 18C79.7614 18 82 20.2386 82 23C82 25.7614 79.7614 28 77 28C74.2386 28 72 25.7614 72 23C72 20.2386 74.2386 18 77 18Z"/>
<path d="M95 18C97.7614 18 100 20.2386 100 23C100 25.7614 97.7614 28 95 28C92.2386 28 90 25.7614 90 23C90 20.2386 92.2386 18 95 18Z"/>
<path d="M113 18C115.761 18 118 20.2386 118 23C118 25.7614 115.761 28 113 28C110.239 28 108 25.7614 108 23C108 20.2386 110.239 18 113 18Z"/>
<path d="M131 18C133.761 18 136 20.2386 136 23C136 25.7614 133.761 28 131 28C128.239 28 126 25.7614 126 23C126 20.2386 128.239 18 131 18Z"/>
<path d="M149 18C151.761 18 154 20.2386 154 23C154 25.7614 151.761 28 149 28C146.239 28 144 25.7614 144 23C144 20.2386 146.239 18 149 18Z"/>
<path d="M167 18C169.761 18 172 20.2386 172 23C172 25.7614 169.761 28 167 28C164.239 28 162 25.7614 162 23C162 20.2386 164.239 18 167 18Z"/>
<path d="M185 18C187.761 18 190 20.2386 190 23C190 25.7614 187.761 28 185 28C182.239 28 180 25.7614 180 23C180 20.2386 182.239 18 185 18Z"/>
<path d="M203 18C205.761 18 208 20.2386 208 23C208 25.7614 205.761 28 203 28C200.239 28 198 25.7614 198 23C198 20.2386 200.239 18 203 18Z"/>
<path d="M221 18C223.761 18 226 20.2386 226 23C226 25.7614 223.761 28 221 28C218.239 28 216 25.7614 216 23C216 20.2386 218.239 18 221 18Z"/>
<path d="M5 0C7.76142 0 10 2.23858 10 5C10 7.76142 7.76142 10 5 10C2.23858 10 0 7.76142 0 5C0 2.23858 2.23858 0 5 0Z"/>
<path d="M23 0C25.7614 0 28 2.23858 28 5C28 7.76142 25.7614 10 23 10C20.2386 10 18 7.76142 18 5C18 2.23858 20.2386 0 23 0Z"/>
<path d="M41 0C43.7614 0 46 2.23858 46 5C46 7.76142 43.7614 10 41 10C38.2386 10 36 7.76142 36 5C36 2.23858 38.2386 0 41 0Z"/>
<path d="M59 0C61.7614 0 64 2.23858 64 5C64 7.76142 61.7614 10 59 10C56.2386 10 54 7.76142 54 5C54 2.23858 56.2386 0 59 0Z"/>
<path d="M77 0C79.7614 0 82 2.23858 82 5C82 7.76142 79.7614 10 77 10C74.2386 10 72 7.76142 72 5C72 2.23858 74.2386 0 77 0Z"/>
<path d="M95 0C97.7614 0 100 2.23858 100 5C100 7.76142 97.7614 10 95 10C92.2386 10 90 7.76142 90 5C90 2.23858 92.2386 0 95 0Z"/>
<path d="M113 0C115.761 0 118 2.23858 118 5C118 7.76142 115.761 10 113 10C110.239 10 108 7.76142 108 5C108 2.23858 110.239 0 113 0Z"/>
<path d="M131 0C133.761 0 136 2.23858 136 5C136 7.76142 133.761 10 131 10C128.239 10 126 7.76142 126 5C126 2.23858 128.239 0 131 0Z"/>
<path d="M149 0C151.761 0 154 2.23858 154 5C154 7.76142 151.761 10 149 10C146.239 10 144 7.76142 144 5C144 2.23858 146.239 0 149 0Z"/>
<path d="M167 0C169.761 0 172 2.23858 172 5C172 7.76142 169.761 10 167 10C164.239 10 162 7.76142 162 5C162 2.23858 164.239 0 167 0Z"/>
<path d="M185 0C187.761 0 190 2.23858 190 5C190 7.76142 187.761 10 185 10C182.239 10 180 7.76142 180 5C180 2.23858 182.239 0 185 0Z"/>
<path d="M203 0C205.761 0 208 2.23858 208 5C208 7.76142 205.761 10 203 10C200.239 10 198 7.76142 198 5C198 2.23858 200.239 0 203 0Z"/>
<path d="M221 0C223.761 0 226 2.23858 226 5C226 7.76142 223.761 10 221 10C218.239 10 216 7.76142 216 5C216 2.23858 218.239 0 221 0Z"/>
</mask>
<g filter="url(#filter0_i_0_11)">
<path d="M5 54C7.76142 54 10 56.2386 10 59C10 61.7614 7.76142 64 5 64C2.23858 64 0 61.7614 0 59C0 56.2386 2.23858 54 5 54Z" fill="var(--fill-0, #A8A8A8)"/>
<path d="M23 54C25.7614 54 28 56.2386 28 59C28 61.7614 25.7614 64 23 64C20.2386 64 18 61.7614 18 59C18 56.2386 20.2386 54 23 54Z" fill="var(--fill-0, #A8A8A8)"/>
<path d="M41 54C43.7614 54 46 56.2386 46 59C46 61.7614 43.7614 64 41 64C38.2386 64 36 61.7614 36 59C36 56.2386 38.2386 54 41 54Z" fill="var(--fill-0, #A8A8A8)"/>
<path d="M59 54C61.7614 54 64 56.2386 64 59C64 61.7614 61.7614 64 59 64C56.2386 64 54 61.7614 54 59C54 56.2386 56.2386 54 59 54Z" fill="var(--fill-0, #A8A8A8)"/>
<path d="M77 54C79.7614 54 82 56.2386 82 59C82 61.7614 79.7614 64 77 64C74.2386 64 72 61.7614 72 59C72 56.2386 74.2386 54 77 54Z" fill="var(--fill-0, #A8A8A8)"/>
<path d="M95 54C97.7614 54 100 56.2386 100 59C100 61.7614 97.7614 64 95 64C92.2386 64 90 61.7614 90 59C90 56.2386 92.2386 54 95 54Z" fill="var(--fill-0, #A8A8A8)"/>
<path d="M113 54C115.761 54 118 56.2386 118 59C118 61.7614 115.761 64 113 64C110.239 64 108 61.7614 108 59C108 56.2386 110.239 54 113 54Z" fill="var(--fill-0, #A8A8A8)"/>
<path d="M131 54C133.761 54 136 56.2386 136 59C136 61.7614 133.761 64 131 64C128.239 64 126 61.7614 126 59C126 56.2386 128.239 54 131 54Z" fill="var(--fill-0, #A8A8A8)"/>
<path d="M149 54C151.761 54 154 56.2386 154 59C154 61.7614 151.761 64 149 64C146.239 64 144 61.7614 144 59C144 56.2386 146.239 54 149 54Z" fill="var(--fill-0, #A8A8A8)"/>
<path d="M167 54C169.761 54 172 56.2386 172 59C172 61.7614 169.761 64 167 64C164.239 64 162 61.7614 162 59C162 56.2386 164.239 54 167 54Z" fill="var(--fill-0, #A8A8A8)"/>
<path d="M185 54C187.761 54 190 56.2386 190 59C190 61.7614 187.761 64 185 64C182.239 64 180 61.7614 180 59C180 56.2386 182.239 54 185 54Z" fill="var(--fill-0, #A8A8A8)"/>
<path d="M203 54C205.761 54 208 56.2386 208 59C208 61.7614 205.761 64 203 64C200.239 64 198 61.7614 198 59C198 56.2386 200.239 54 203 54Z" fill="var(--fill-0, #A8A8A8)"/>
<path d="M221 54C223.761 54 226 56.2386 226 59C226 61.7614 223.761 64 221 64C218.239 64 216 61.7614 216 59C216 56.2386 218.239 54 221 54Z" fill="var(--fill-0, #A8A8A8)"/>
<path d="M5 36C7.76142 36 10 38.2386 10 41C10 43.7614 7.76142 46 5 46C2.23858 46 0 43.7614 0 41C0 38.2386 2.23858 36 5 36Z" fill="var(--fill-0, #A8A8A8)"/>
<path d="M23 36C25.7614 36 28 38.2386 28 41C28 43.7614 25.7614 46 23 46C20.2386 46 18 43.7614 18 41C18 38.2386 20.2386 36 23 36Z" fill="var(--fill-0, #A8A8A8)"/>
<path d="M41 36C43.7614 36 46 38.2386 46 41C46 43.7614 43.7614 46 41 46C38.2386 46 36 43.7614 36 41C36 38.2386 38.2386 36 41 36Z" fill="var(--fill-0, #A8A8A8)"/>
<path d="M59 36C61.7614 36 64 38.2386 64 41C64 43.7614 61.7614 46 59 46C56.2386 46 54 43.7614 54 41C54 38.2386 56.2386 36 59 36Z" fill="var(--fill-0, #A8A8A8)"/>
<path d="M77 36C79.7614 36 82 38.2386 82 41C82 43.7614 79.7614 46 77 46C74.2386 46 72 43.7614 72 41C72 38.2386 74.2386 36 77 36Z" fill="var(--fill-0, #A8A8A8)"/>
<path d="M95 36C97.7614 36 100 38.2386 100 41C100 43.7614 97.7614 46 95 46C92.2386 46 90 43.7614 90 41C90 38.2386 92.2386 36 95 36Z" fill="var(--fill-0, #A8A8A8)"/>
<path d="M113 36C115.761 36 118 38.2386 118 41C118 43.7614 115.761 46 113 46C110.239 46 108 43.7614 108 41C108 38.2386 110.239 36 113 36Z" fill="var(--fill-0, #A8A8A8)"/>
<path d="M131 36C133.761 36 136 38.2386 136 41C136 43.7614 133.761 46 131 46C128.239 46 126 43.7614 126 41C126 38.2386 128.239 36 131 36Z" fill="var(--fill-0, #A8A8A8)"/>
<path d="M149 36C151.761 36 154 38.2386 154 41C154 43.7614 151.761 46 149 46C146.239 46 144 43.7614 144 41C144 38.2386 146.239 36 149 36Z" fill="var(--fill-0, #A8A8A8)"/>
<path d="M167 36C169.761 36 172 38.2386 172 41C172 43.7614 169.761 46 167 46C164.239 46 162 43.7614 162 41C162 38.2386 164.239 36 167 36Z" fill="var(--fill-0, #A8A8A8)"/>
<path d="M185 36C187.761 36 190 38.2386 190 41C190 43.7614 187.761 46 185 46C182.239 46 180 43.7614 180 41C180 38.2386 182.239 36 185 36Z" fill="var(--fill-0, #A8A8A8)"/>
<path d="M203 36C205.761 36 208 38.2386 208 41C208 43.7614 205.761 46 203 46C200.239 46 198 43.7614 198 41C198 38.2386 200.239 36 203 36Z" fill="var(--fill-0, #A8A8A8)"/>
<path d="M221 36C223.761 36 226 38.2386 226 41C226 43.7614 223.761 46 221 46C218.239 46 216 43.7614 216 41C216 38.2386 218.239 36 221 36Z" fill="var(--fill-0, #A8A8A8)"/>
<path d="M5 18C7.76142 18 10 20.2386 10 23C10 25.7614 7.76142 28 5 28C2.23858 28 0 25.7614 0 23C0 20.2386 2.23858 18 5 18Z" fill="var(--fill-0, #A8A8A8)"/>
<path d="M23 18C25.7614 18 28 20.2386 28 23C28 25.7614 25.7614 28 23 28C20.2386 28 18 25.7614 18 23C18 20.2386 20.2386 18 23 18Z" fill="var(--fill-0, #A8A8A8)"/>
<path d="M41 18C43.7614 18 46 20.2386 46 23C46 25.7614 43.7614 28 41 28C38.2386 28 36 25.7614 36 23C36 20.2386 38.2386 18 41 18Z" fill="var(--fill-0, #A8A8A8)"/>
<path d="M59 18C61.7614 18 64 20.2386 64 23C64 25.7614 61.7614 28 59 28C56.2386 28 54 25.7614 54 23C54 20.2386 56.2386 18 59 18Z" fill="var(--fill-0, #A8A8A8)"/>
<path d="M77 18C79.7614 18 82 20.2386 82 23C82 25.7614 79.7614 28 77 28C74.2386 28 72 25.7614 72 23C72 20.2386 74.2386 18 77 18Z" fill="var(--fill-0, #A8A8A8)"/>
<path d="M95 18C97.7614 18 100 20.2386 100 23C100 25.7614 97.7614 28 95 28C92.2386 28 90 25.7614 90 23C90 20.2386 92.2386 18 95 18Z" fill="var(--fill-0, #A8A8A8)"/>
<path d="M113 18C115.761 18 118 20.2386 118 23C118 25.7614 115.761 28 113 28C110.239 28 108 25.7614 108 23C108 20.2386 110.239 18 113 18Z" fill="var(--fill-0, #A8A8A8)"/>
<path d="M131 18C133.761 18 136 20.2386 136 23C136 25.7614 133.761 28 131 28C128.239 28 126 25.7614 126 23C126 20.2386 128.239 18 131 18Z" fill="var(--fill-0, #A8A8A8)"/>
<path d="M149 18C151.761 18 154 20.2386 154 23C154 25.7614 151.761 28 149 28C146.239 28 144 25.7614 144 23C144 20.2386 146.239 18 149 18Z" fill="var(--fill-0, #A8A8A8)"/>
<path d="M167 18C169.761 18 172 20.2386 172 23C172 25.7614 169.761 28 167 28C164.239 28 162 25.7614 162 23C162 20.2386 164.239 18 167 18Z" fill="var(--fill-0, #A8A8A8)"/>
<path d="M185 18C187.761 18 190 20.2386 190 23C190 25.7614 187.761 28 185 28C182.239 28 180 25.7614 180 23C180 20.2386 182.239 18 185 18Z" fill="var(--fill-0, #A8A8A8)"/>
<path d="M203 18C205.761 18 208 20.2386 208 23C208 25.7614 205.761 28 203 28C200.239 28 198 25.7614 198 23C198 20.2386 200.239 18 203 18Z" fill="var(--fill-0, #A8A8A8)"/>
<path d="M221 18C223.761 18 226 20.2386 226 23C226 25.7614 223.761 28 221 28C218.239 28 216 25.7614 216 23C216 20.2386 218.239 18 221 18Z" fill="var(--fill-0, #A8A8A8)"/>
<path d="M5 0C7.76142 0 10 2.23858 10 5C10 7.76142 7.76142 10 5 10C2.23858 10 0 7.76142 0 5C0 2.23858 2.23858 0 5 0Z" fill="var(--fill-0, #A8A8A8)"/>
<path d="M23 0C25.7614 0 28 2.23858 28 5C28 7.76142 25.7614 10 23 10C20.2386 10 18 7.76142 18 5C18 2.23858 20.2386 0 23 0Z" fill="var(--fill-0, #A8A8A8)"/>
<path d="M41 0C43.7614 0 46 2.23858 46 5C46 7.76142 43.7614 10 41 10C38.2386 10 36 7.76142 36 5C36 2.23858 38.2386 0 41 0Z" fill="var(--fill-0, #A8A8A8)"/>
<path d="M59 0C61.7614 0 64 2.23858 64 5C64 7.76142 61.7614 10 59 10C56.2386 10 54 7.76142 54 5C54 2.23858 56.2386 0 59 0Z" fill="var(--fill-0, #A8A8A8)"/>
<path d="M77 0C79.7614 0 82 2.23858 82 5C82 7.76142 79.7614 10 77 10C74.2386 10 72 7.76142 72 5C72 2.23858 74.2386 0 77 0Z" fill="var(--fill-0, #A8A8A8)"/>
<path d="M95 0C97.7614 0 100 2.23858 100 5C100 7.76142 97.7614 10 95 10C92.2386 10 90 7.76142 90 5C90 2.23858 92.2386 0 95 0Z" fill="var(--fill-0, #A8A8A8)"/>
<path d="M113 0C115.761 0 118 2.23858 118 5C118 7.76142 115.761 10 113 10C110.239 10 108 7.76142 108 5C108 2.23858 110.239 0 113 0Z" fill="var(--fill-0, #A8A8A8)"/>
<path d="M131 0C133.761 0 136 2.23858 136 5C136 7.76142 133.761 10 131 10C128.239 10 126 7.76142 126 5C126 2.23858 128.239 0 131 0Z" fill="var(--fill-0, #A8A8A8)"/>
<path d="M149 0C151.761 0 154 2.23858 154 5C154 7.76142 151.761 10 149 10C146.239 10 144 7.76142 144 5C144 2.23858 146.239 0 149 0Z" fill="var(--fill-0, #A8A8A8)"/>
<path d="M167 0C169.761 0 172 2.23858 172 5C172 7.76142 169.761 10 167 10C164.239 10 162 7.76142 162 5C162 2.23858 164.239 0 167 0Z" fill="var(--fill-0, #A8A8A8)"/>
<path d="M185 0C187.761 0 190 2.23858 190 5C190 7.76142 187.761 10 185 10C182.239 10 180 7.76142 180 5C180 2.23858 182.239 0 185 0Z" fill="var(--fill-0, #A8A8A8)"/>
<path d="M203 0C205.761 0 208 2.23858 208 5C208 7.76142 205.761 10 203 10C200.239 10 198 7.76142 198 5C198 2.23858 200.239 0 203 0Z" fill="var(--fill-0, #A8A8A8)"/>
<path d="M221 0C223.761 0 226 2.23858 226 5C226 7.76142 223.761 10 221 10C218.239 10 216 7.76142 216 5C216 2.23858 218.239 0 221 0Z" fill="var(--fill-0, #A8A8A8)"/>
</g>
<path d="M5 54C7.76142 54 10 56.2386 10 59C10 61.7614 7.76142 64 5 64C2.23858 64 0 61.7614 0 59C0 56.2386 2.23858 54 5 54Z" stroke="var(--stroke-0, #A4A4A4)" stroke-width="0.8" mask="url(#path-1-inside-1_0_11)"/>
<path d="M23 54C25.7614 54 28 56.2386 28 59C28 61.7614 25.7614 64 23 64C20.2386 64 18 61.7614 18 59C18 56.2386 20.2386 54 23 54Z" stroke="var(--stroke-0, #A4A4A4)" stroke-width="0.8" mask="url(#path-1-inside-1_0_11)"/>
<path d="M41 54C43.7614 54 46 56.2386 46 59C46 61.7614 43.7614 64 41 64C38.2386 64 36 61.7614 36 59C36 56.2386 38.2386 54 41 54Z" stroke="var(--stroke-0, #A4A4A4)" stroke-width="0.8" mask="url(#path-1-inside-1_0_11)"/>
<path d="M59 54C61.7614 54 64 56.2386 64 59C64 61.7614 61.7614 64 59 64C56.2386 64 54 61.7614 54 59C54 56.2386 56.2386 54 59 54Z" stroke="var(--stroke-0, #A4A4A4)" stroke-width="0.8" mask="url(#path-1-inside-1_0_11)"/>
<path d="M77 54C79.7614 54 82 56.2386 82 59C82 61.7614 79.7614 64 77 64C74.2386 64 72 61.7614 72 59C72 56.2386 74.2386 54 77 54Z" stroke="var(--stroke-0, #A4A4A4)" stroke-width="0.8" mask="url(#path-1-inside-1_0_11)"/>
<path d="M95 54C97.7614 54 100 56.2386 100 59C100 61.7614 97.7614 64 95 64C92.2386 64 90 61.7614 90 59C90 56.2386 92.2386 54 95 54Z" stroke="var(--stroke-0, #A4A4A4)" stroke-width="0.8" mask="url(#path-1-inside-1_0_11)"/>
<path d="M113 54C115.761 54 118 56.2386 118 59C118 61.7614 115.761 64 113 64C110.239 64 108 61.7614 108 59C108 56.2386 110.239 54 113 54Z" stroke="var(--stroke-0, #A4A4A4)" stroke-width="0.8" mask="url(#path-1-inside-1_0_11)"/>
<path d="M131 54C133.761 54 136 56.2386 136 59C136 61.7614 133.761 64 131 64C128.239 64 126 61.7614 126 59C126 56.2386 128.239 54 131 54Z" stroke="var(--stroke-0, #A4A4A4)" stroke-width="0.8" mask="url(#path-1-inside-1_0_11)"/>
<path d="M149 54C151.761 54 154 56.2386 154 59C154 61.7614 151.761 64 149 64C146.239 64 144 61.7614 144 59C144 56.2386 146.239 54 149 54Z" stroke="var(--stroke-0, #A4A4A4)" stroke-width="0.8" mask="url(#path-1-inside-1_0_11)"/>
<path d="M167 54C169.761 54 172 56.2386 172 59C172 61.7614 169.761 64 167 64C164.239 64 162 61.7614 162 59C162 56.2386 164.239 54 167 54Z" stroke="var(--stroke-0, #A4A4A4)" stroke-width="0.8" mask="url(#path-1-inside-1_0_11)"/>
<path d="M185 54C187.761 54 190 56.2386 190 59C190 61.7614 187.761 64 185 64C182.239 64 180 61.7614 180 59C180 56.2386 182.239 54 185 54Z" stroke="var(--stroke-0, #A4A4A4)" stroke-width="0.8" mask="url(#path-1-inside-1_0_11)"/>
<path d="M203 54C205.761 54 208 56.2386 208 59C208 61.7614 205.761 64 203 64C200.239 64 198 61.7614 198 59C198 56.2386 200.239 54 203 54Z" stroke="var(--stroke-0, #A4A4A4)" stroke-width="0.8" mask="url(#path-1-inside-1_0_11)"/>
<path d="M221 54C223.761 54 226 56.2386 226 59C226 61.7614 223.761 64 221 64C218.239 64 216 61.7614 216 59C216 56.2386 218.239 54 221 54Z" stroke="var(--stroke-0, #A4A4A4)" stroke-width="0.8" mask="url(#path-1-inside-1_0_11)"/>
<path d="M5 36C7.76142 36 10 38.2386 10 41C10 43.7614 7.76142 46 5 46C2.23858 46 0 43.7614 0 41C0 38.2386 2.23858 36 5 36Z" stroke="var(--stroke-0, #A4A4A4)" stroke-width="0.8" mask="url(#path-1-inside-1_0_11)"/>
<path d="M23 36C25.7614 36 28 38.2386 28 41C28 43.7614 25.7614 46 23 46C20.2386 46 18 43.7614 18 41C18 38.2386 20.2386 36 23 36Z" stroke="var(--stroke-0, #A4A4A4)" stroke-width="0.8" mask="url(#path-1-inside-1_0_11)"/>
<path d="M41 36C43.7614 36 46 38.2386 46 41C46 43.7614 43.7614 46 41 46C38.2386 46 36 43.7614 36 41C36 38.2386 38.2386 36 41 36Z" stroke="var(--stroke-0, #A4A4A4)" stroke-width="0.8" mask="url(#path-1-inside-1_0_11)"/>
<path d="M59 36C61.7614 36 64 38.2386 64 41C64 43.7614 61.7614 46 59 46C56.2386 46 54 43.7614 54 41C54 38.2386 56.2386 36 59 36Z" stroke="var(--stroke-0, #A4A4A4)" stroke-width="0.8" mask="url(#path-1-inside-1_0_11)"/>
<path d="M77 36C79.7614 36 82 38.2386 82 41C82 43.7614 79.7614 46 77 46C74.2386 46 72 43.7614 72 41C72 38.2386 74.2386 36 77 36Z" stroke="var(--stroke-0, #A4A4A4)" stroke-width="0.8" mask="url(#path-1-inside-1_0_11)"/>
<path d="M95 36C97.7614 36 100 38.2386 100 41C100 43.7614 97.7614 46 95 46C92.2386 46 90 43.7614 90 41C90 38.2386 92.2386 36 95 36Z" stroke="var(--stroke-0, #A4A4A4)" stroke-width="0.8" mask="url(#path-1-inside-1_0_11)"/>
<path d="M113 36C115.761 36 118 38.2386 118 41C118 43.7614 115.761 46 113 46C110.239 46 108 43.7614 108 41C108 38.2386 110.239 36 113 36Z" stroke="var(--stroke-0, #A4A4A4)" stroke-width="0.8" mask="url(#path-1-inside-1_0_11)"/>
<path d="M131 36C133.761 36 136 38.2386 136 41C136 43.7614 133.761 46 131 46C128.239 46 126 43.7614 126 41C126 38.2386 128.239 36 131 36Z" stroke="var(--stroke-0, #A4A4A4)" stroke-width="0.8" mask="url(#path-1-inside-1_0_11)"/>
<path d="M149 36C151.761 36 154 38.2386 154 41C154 43.7614 151.761 46 149 46C146.239 46 144 43.7614 144 41C144 38.2386 146.239 36 149 36Z" stroke="var(--stroke-0, #A4A4A4)" stroke-width="0.8" mask="url(#path-1-inside-1_0_11)"/>
<path d="M167 36C169.761 36 172 38.2386 172 41C172 43.7614 169.761 46 167 46C164.239 46 162 43.7614 162 41C162 38.2386 164.239 36 167 36Z" stroke="var(--stroke-0, #A4A4A4)" stroke-width="0.8" mask="url(#path-1-inside-1_0_11)"/>
<path d="M185 36C187.761 36 190 38.2386 190 41C190 43.7614 187.761 46 185 46C182.239 46 180 43.7614 180 41C180 38.2386 182.239 36 185 36Z" stroke="var(--stroke-0, #A4A4A4)" stroke-width="0.8" mask="url(#path-1-inside-1_0_11)"/>
<path d="M203 36C205.761 36 208 38.2386 208 41C208 43.7614 205.761 46 203 46C200.239 46 198 43.7614 198 41C198 38.2386 200.239 36 203 36Z" stroke="var(--stroke-0, #A4A4A4)" stroke-width="0.8" mask="url(#path-1-inside-1_0_11)"/>
<path d="M221 36C223.761 36 226 38.2386 226 41C226 43.7614 223.761 46 221 46C218.239 46 216 43.7614 216 41C216 38.2386 218.239 36 221 36Z" stroke="var(--stroke-0, #A4A4A4)" stroke-width="0.8" mask="url(#path-1-inside-1_0_11)"/>
<path d="M5 18C7.76142 18 10 20.2386 10 23C10 25.7614 7.76142 28 5 28C2.23858 28 0 25.7614 0 23C0 20.2386 2.23858 18 5 18Z" stroke="var(--stroke-0, #A4A4A4)" stroke-width="0.8" mask="url(#path-1-inside-1_0_11)"/>
<path d="M23 18C25.7614 18 28 20.2386 28 23C28 25.7614 25.7614 28 23 28C20.2386 28 18 25.7614 18 23C18 20.2386 20.2386 18 23 18Z" stroke="var(--stroke-0, #A4A4A4)" stroke-width="0.8" mask="url(#path-1-inside-1_0_11)"/>
<path d="M41 18C43.7614 18 46 20.2386 46 23C46 25.7614 43.7614 28 41 28C38.2386 28 36 25.7614 36 23C36 20.2386 38.2386 18 41 18Z" stroke="var(--stroke-0, #A4A4A4)" stroke-width="0.8" mask="url(#path-1-inside-1_0_11)"/>
<path d="M59 18C61.7614 18 64 20.2386 64 23C64 25.7614 61.7614 28 59 28C56.2386 28 54 25.7614 54 23C54 20.2386 56.2386 18 59 18Z" stroke="var(--stroke-0, #A4A4A4)" stroke-width="0.8" mask="url(#path-1-inside-1_0_11)"/>
<path d="M77 18C79.7614 18 82 20.2386 82 23C82 25.7614 79.7614 28 77 28C74.2386 28 72 25.7614 72 23C72 20.2386 74.2386 18 77 18Z" stroke="var(--stroke-0, #A4A4A4)" stroke-width="0.8" mask="url(#path-1-inside-1_0_11)"/>
<path d="M95 18C97.7614 18 100 20.2386 100 23C100 25.7614 97.7614 28 95 28C92.2386 28 90 25.7614 90 23C90 20.2386 92.2386 18 95 18Z" stroke="var(--stroke-0, #A4A4A4)" stroke-width="0.8" mask="url(#path-1-inside-1_0_11)"/>
<path d="M113 18C115.761 18 118 20.2386 118 23C118 25.7614 115.761 28 113 28C110.239 28 108 25.7614 108 23C108 20.2386 110.239 18 113 18Z" stroke="var(--stroke-0, #A4A4A4)" stroke-width="0.8" mask="url(#path-1-inside-1_0_11)"/>
<path d="M131 18C133.761 18 136 20.2386 136 23C136 25.7614 133.761 28 131 28C128.239 28 126 25.7614 126 23C126 20.2386 128.239 18 131 18Z" stroke="var(--stroke-0, #A4A4A4)" stroke-width="0.8" mask="url(#path-1-inside-1_0_11)"/>
<path d="M149 18C151.761 18 154 20.2386 154 23C154 25.7614 151.761 28 149 28C146.239 28 144 25.7614 144 23C144 20.2386 146.239 18 149 18Z" stroke="var(--stroke-0, #A4A4A4)" stroke-width="0.8" mask="url(#path-1-inside-1_0_11)"/>
<path d="M167 18C169.761 18 172 20.2386 172 23C172 25.7614 169.761 28 167 28C164.239 28 162 25.7614 162 23C162 20.2386 164.239 18 167 18Z" stroke="var(--stroke-0, #A4A4A4)" stroke-width="0.8" mask="url(#path-1-inside-1_0_11)"/>
<path d="M185 18C187.761 18 190 20.2386 190 23C190 25.7614 187.761 28 185 28C182.239 28 180 25.7614 180 23C180 20.2386 182.239 18 185 18Z" stroke="var(--stroke-0, #A4A4A4)" stroke-width="0.8" mask="url(#path-1-inside-1_0_11)"/>
<path d="M203 18C205.761 18 208 20.2386 208 23C208 25.7614 205.761 28 203 28C200.239 28 198 25.7614 198 23C198 20.2386 200.239 18 203 18Z" stroke="var(--stroke-0, #A4A4A4)" stroke-width="0.8" mask="url(#path-1-inside-1_0_11)"/>
<path d="M221 18C223.761 18 226 20.2386 226 23C226 25.7614 223.761 28 221 28C218.239 28 216 25.7614 216 23C216 20.2386 218.239 18 221 18Z" stroke="var(--stroke-0, #A4A4A4)" stroke-width="0.8" mask="url(#path-1-inside-1_0_11)"/>
<path d="M5 0C7.76142 0 10 2.23858 10 5C10 7.76142 7.76142 10 5 10C2.23858 10 0 7.76142 0 5C0 2.23858 2.23858 0 5 0Z" stroke="var(--stroke-0, #A4A4A4)" stroke-width="0.8" mask="url(#path-1-inside-1_0_11)"/>
<path d="M23 0C25.7614 0 28 2.23858 28 5C28 7.76142 25.7614 10 23 10C20.2386 10 18 7.76142 18 5C18 2.23858 20.2386 0 23 0Z" stroke="var(--stroke-0, #A4A4A4)" stroke-width="0.8" mask="url(#path-1-inside-1_0_11)"/>
<path d="M41 0C43.7614 0 46 2.23858 46 5C46 7.76142 43.7614 10 41 10C38.2386 10 36 7.76142 36 5C36 2.23858 38.2386 0 41 0Z" stroke="var(--stroke-0, #A4A4A4)" stroke-width="0.8" mask="url(#path-1-inside-1_0_11)"/>
<path d="M59 0C61.7614 0 64 2.23858 64 5C64 7.76142 61.7614 10 59 10C56.2386 10 54 7.76142 54 5C54 2.23858 56.2386 0 59 0Z" stroke="var(--stroke-0, #A4A4A4)" stroke-width="0.8" mask="url(#path-1-inside-1_0_11)"/>
<path d="M77 0C79.7614 0 82 2.23858 82 5C82 7.76142 79.7614 10 77 10C74.2386 10 72 7.76142 72 5C72 2.23858 74.2386 0 77 0Z" stroke="var(--stroke-0, #A4A4A4)" stroke-width="0.8" mask="url(#path-1-inside-1_0_11)"/>
<path d="M95 0C97.7614 0 100 2.23858 100 5C100 7.76142 97.7614 10 95 10C92.2386 10 90 7.76142 90 5C90 2.23858 92.2386 0 95 0Z" stroke="var(--stroke-0, #A4A4A4)" stroke-width="0.8" mask="url(#path-1-inside-1_0_11)"/>
<path d="M113 0C115.761 0 118 2.23858 118 5C118 7.76142 115.761 10 113 10C110.239 10 108 7.76142 108 5C108 2.23858 110.239 0 113 0Z" stroke="var(--stroke-0, #A4A4A4)" stroke-width="0.8" mask="url(#path-1-inside-1_0_11)"/>
<path d="M131 0C133.761 0 136 2.23858 136 5C136 7.76142 133.761 10 131 10C128.239 10 126 7.76142 126 5C126 2.23858 128.239 0 131 0Z" stroke="var(--stroke-0, #A4A4A4)" stroke-width="0.8" mask="url(#path-1-inside-1_0_11)"/>
<path d="M149 0C151.761 0 154 2.23858 154 5C154 7.76142 151.761 10 149 10C146.239 10 144 7.76142 144 5C144 2.23858 146.239 0 149 0Z" stroke="var(--stroke-0, #A4A4A4)" stroke-width="0.8" mask="url(#path-1-inside-1_0_11)"/>
<path d="M167 0C169.761 0 172 2.23858 172 5C172 7.76142 169.761 10 167 10C164.239 10 162 7.76142 162 5C162 2.23858 164.239 0 167 0Z" stroke="var(--stroke-0, #A4A4A4)" stroke-width="0.8" mask="url(#path-1-inside-1_0_11)"/>
<path d="M185 0C187.761 0 190 2.23858 190 5C190 7.76142 187.761 10 185 10C182.239 10 180 7.76142 180 5C180 2.23858 182.239 0 185 0Z" stroke="var(--stroke-0, #A4A4A4)" stroke-width="0.8" mask="url(#path-1-inside-1_0_11)"/>
<path d="M203 0C205.761 0 208 2.23858 208 5C208 7.76142 205.761 10 203 10C200.239 10 198 7.76142 198 5C198 2.23858 200.239 0 203 0Z" stroke="var(--stroke-0, #A4A4A4)" stroke-width="0.8" mask="url(#path-1-inside-1_0_11)"/>
<path d="M221 0C223.761 0 226 2.23858 226 5C226 7.76142 223.761 10 221 10C218.239 10 216 7.76142 216 5C216 2.23858 218.239 0 221 0Z" stroke="var(--stroke-0, #A4A4A4)" stroke-width="0.8" mask="url(#path-1-inside-1_0_11)"/>
</g>
</g>
<defs>
<filter id="filter0_i_0_11" x="0" y="0" width="226" height="64" filterUnits="userSpaceOnUse" color-interpolation-filters="sRGB">
<feFlood flood-opacity="0" result="BackgroundImageFix"/>
<feBlend mode="normal" in="SourceGraphic" in2="BackgroundImageFix" result="shape"/>
<feColorMatrix in="SourceAlpha" type="matrix" values="0 0 0 0 0 0 0 0 0 0 0 0 0 0 0 0 0 0 127 0" result="hardAlpha"/>
<feOffset/>
<feGaussianBlur stdDeviation="2"/>
<feComposite in2="hardAlpha" operator="arithmetic" k2="-1" k3="1"/>
<feColorMatrix type="matrix" values="0 0 0 0 0 0 0 0 0 0 0 0 0 0 0 0 0 0 0.25 0"/>
<feBlend mode="normal" in2="shape" result="effect1_innerShadow_0_11"/>
</filter>
</defs>
</svg>
